<?xml version="1.0" encoding="iso-8859-1"?>
<!-- Generator: Adobe Illustrator 17.1.0, SVG Export Plug-In . SVG Version: 6.00 Build 0)  -->
<!DOCTYPE svg PUBLIC "-//W3C//DTD SVG 1.1//EN" "http://www.w3.org/Graphics/SVG/1.1/DTD/svg11.dtd">
<svg version="1.1" id="Layer_1" xmlns="http://www.w3.org/2000/svg" xmlns:xlink="http://www.w3.org/1999/xlink" x="0px" y="0px"
	 viewBox="0 0 16 16" style="enable-background:new 0 0 16 16;" xml:space="preserve">
<path fill="white" d="M14.137,9.894c-0.517,1.366-1.47,2.422-2.836,2.981V9.894l1.635-1.47l-1.635-1.449V4.926
	c1.49-0.104,2.525-1.201,2.525-2.546c0-1.759-1.676-2.38-2.629-2.38c-0.207,0-0.435,0-0.766,0.083v0.083
	c0.124,0,0.31-0.021,0.372-0.021c0.662,0,1.159,0.311,1.159,0.911c0,0.455-0.373,0.911-1.035,0.911c-1.635,0-3.56-1.325-5.651-1.325
	c-1.863,0-3.146,1.387-3.146,2.794c0,1.387,0.807,1.842,1.656,2.153l0.021-0.083C3.539,5.34,3.353,5.051,3.353,4.595
	c0-0.621,0.58-1.138,1.304-1.138c1.759,0,4.595,1.47,6.355,1.47h0.165v2.07L9.542,8.424l1.635,1.47v3.022
	c-0.683,0.248-1.387,0.352-2.111,0.352c-2.732,0-4.471-1.656-4.471-4.409c0-0.662,0.083-1.304,0.269-1.925l1.366-0.6v6.085
	l2.774-1.221v-6.23L4.926,6.789c0.414-1.2,1.263-2.07,2.277-2.567L7.182,4.16c-2.732,0.6-5.382,2.67-5.382,5.775
	C1.801,13.516,4.823,16,8.341,16c3.726,0,5.837-2.484,5.858-6.106H14.137z"/>
</svg> 